<svg xmlns="http://www.w3.org/2000/svg" viewBox="270 270 500 500" width="1024" height="1024" role="img" aria-labelledby="title desc">
  <title id="title">Thein Htoo Aung</title>
  <desc id="desc">Modern monogram icon using dark navy, crimson red, and white.</desc>

  <defs>
    <radialGradient id="bgGlow" cx="50%" cy="45%" r="55%">
      <stop offset="100%" stop-color="#ffffff"/>
    </radialGradient>

    <linearGradient id="navy" x1="330" y1="265" x2="790" y2="780" gradientUnits="userSpaceOnUse">
      <stop offset="0" stop-color="#13263D"/>
      <stop offset="1" stop-color="#06101D"/>
    </linearGradient>

    <linearGradient id="crimson" x1="250" y1="200" x2="845" y2="785" gradientUnits="userSpaceOnUse">
      <stop offset="0" stop-color="#EE1530"/>
      <stop offset="0.55" stop-color="#C9041B"/>
      <stop offset="1" stop-color="#9C0116"/>
    </linearGradient>

    <filter id="softShadow" x="-20%" y="-20%" width="140%" height="140%">
      <feDropShadow dx="0" dy="12" stdDeviation="16" flood-color="#000000" flood-opacity="0.55"/>
    </filter>

    <filter id="redAura" x="-120%" y="-120%" width="340%" height="340%">
      <feGaussianBlur stdDeviation="28" result="blur"/>
      <feColorMatrix in="blur" type="matrix" values="1 0 0 0 0.75  0 0 0 0 0  0 0 0 0 0.08  0 0 0 .85 0"/>
      <feMerge>
        <feMergeNode/>
        <feMergeNode in="SourceGraphic"/>
      </feMerge>
    </filter>
  </defs>

  <!-- Remove this group if you need transparent background only. -->
  <!-- <g id="background">
    <rect width="1024" height="1024" fill="url(#bgGlow)"/>
  </g> -->

  <g id="icon" filter="url(#softShadow)" transform="rotate(-25 520 520)">
    <!-- Crimson petal dots -->
    <!-- <g fill="url(#crimson)" filter="url(#redAura)">
      <circle cx="440" cy="254" r="38"/>
      <circle cx="292" cy="456" r="38"/>
      <circle cx="421" cy="638" r="38"/>
    </g> -->

    <!-- Dark outer THA mark (No A dash version) -->
    <path fill="url(#navy)" d="
      M535 278
      C548 266 568 271 578 282
      C590 295 590 315 577 328
      L566 339

      C596 344 620 360 633 384
      C646 408 646 437 632 463
      C618 490 594 508 566 514

      L590 535
      C600 544 606 556 606 570
      L606 742

      C606 765 587 784 564 784
      C541 784 522 765 522 742

      L522 590
      L373 480

      C360 472 351 457 351 442
      C351 428 358 416 369 408

      L535 278
      Z
    "/>

    <!-- White angular T/H stroke -->
    <path fill="#FFFFFF" d="
      M532 302
      C538 296 548 299 552 304
      C556 309 555 316 550 320
      L432 427
      C424 434 424 447 432 454
      L579 546
      C586 550 590 558 590 566
      L590 728
      C590 740 581 749 569 749
      C557 749 548 740 548 728
      L548 578
      L387 478
      C372 469 369 448 383 436
      Z
    "/>

    <!-- Crimson vertical inlay -->
    <path fill="url(#crimson)" d="
      M538 543
      L566 560
      C575 566 580 576 580 587
      L580 735
      C580 750 568 761 554 761
      C540 761 528 750 528 735
      L528 557
      C528 548 533 544 538 543
      Z
    "/>

    <!-- Center white ring / A dot -->
    <circle cx="583" cy="426" r="59" fill="#FFFFFF"/>
    <circle cx="583" cy="426" r="34" fill="#0C162A"/>

    <!-- Crimson horizontal A dash -->
    <!-- <path fill="url(#crimson)" d="
      M655 374
      L805 374
      C817 374 827 384 827 396
      C827 408 817 418 805 418
      L678 418
      C669 418 662 413 659 405
      L648 382
      C646 378 650 374 655 374
      Z
    "/> -->
  </g>
</svg>
